<svg width="488" height="690" viewBox="0 0 488 690" fill="none" xmlns="http://www.w3.org/2000/svg">
<g clip-path="url(#clip0)">
<path d="M209.264 296.649L181.768 258.013L-19.391 423.209L-40.717 457.412L-16.176 490.339C3.93901 476.5 209.264 296.649 209.264 296.649Z" fill="#393536"/>
<path d="M209.264 296.649L205.737 299.156L180.931 264.3L-16.096 426.103L-35.484 457.196L-12.707 487.754L-16.176 490.339L-18.629 486.774C-17.551 486.035 -15.594 484.545 -13.025 482.499C-3.35001 474.795 15.275 459.067 37.676 439.882C71.289 411.095 113.479 374.47 147.258 345.044C164.149 330.332 178.938 317.419 189.503 308.184C194.786 303.566 199.015 299.868 201.921 297.326C204.827 294.782 206.407 293.397 206.412 293.394L209.264 296.649L205.737 299.156L209.264 296.649L212.114 299.903C212.11 299.906 160.777 344.871 106.921 391.574C79.993 414.925 52.435 438.71 30.34 457.53C19.292 466.942 9.60997 475.111 2.04597 481.376C-1.74003 484.509 -4.994 487.164 -7.636 489.268C-10.286 491.377 -12.29 492.915 -13.725 493.904C-15.64 495.221 -18.258 494.788 -19.647 492.924L-44.187 459.997C-45.249 458.573 -45.33 456.631 -44.39 455.122L-23.062 420.921C-22.807 420.512 -22.507 420.171 -22.136 419.865L179.023 254.67C179.954 253.905 181.146 253.566 182.339 253.725C183.533 253.884 184.595 254.524 185.293 255.505L212.789 294.141C214.075 295.948 213.784 298.441 212.114 299.903L209.264 296.649Z" fill="#231F20"/>
<path d="M69.624 603.745L-34.946 474.53C-57.019 444.749 -8.90703 414.63 -8.90703 414.63C-8.90703 414.63 -38.403 452.168 -17.029 478.862L100.725 625.934L69.624 603.745Z" fill="#231F20"/>
<path d="M69.624 603.745L66.26 606.467L-38.309 477.253L-38.419 477.11C-38.702 476.73 -38.975 476.35 -39.239 475.966C-41.751 472.316 -43.408 468.557 -44.286 464.805C-45.832 458.228 -44.953 451.799 -42.788 446.045C-39.523 437.394 -33.5 430.032 -27.652 424.235C-21.791 418.449 -16.05 414.253 -13.149 412.255C-11.959 411.437 -11.248 410.99 -11.198 410.96C-9.416 409.847 -7.09201 410.175 -5.68701 411.739C-4.28401 413.304 -4.207 415.649 -5.504 417.303L-6.354 416.635L-5.50201 417.299L-5.504 417.303L-6.354 416.635L-5.50201 417.299C-5.56901 417.369 -12.304 426.067 -16.671 437.56C-18.864 443.301 -20.453 449.713 -20.474 456.018C-20.487 462.336 -19.021 468.492 -15.058 474.269C-14.621 474.904 -14.155 475.533 -13.655 476.154L-13.652 476.158L104.104 623.23C105.45 624.913 105.35 627.343 103.869 628.909C102.388 630.474 99.966 630.708 98.213 629.456L67.11 607.267C66.779 607.033 66.513 606.782 66.26 606.467L69.624 603.745L72.135 600.223L77.876 604.318L-20.406 481.567L-20.403 481.572C-21.04 480.779 -21.633 479.979 -22.187 479.174C-27.313 471.739 -29.2 463.555 -29.126 455.8C-29.012 444.138 -24.754 433.31 -20.634 425.3C-16.497 417.295 -12.422 412.104 -12.31 411.958L-8.90701 414.63L-6.61401 418.3L-6.62601 418.307C-6.72601 418.369 -7.30799 418.74 -8.24399 419.384C-10.237 420.753 -13.832 423.365 -17.791 426.865C-23.738 432.099 -30.445 439.396 -33.885 447.143C-35.619 451.016 -36.554 454.949 -36.398 458.873C-36.231 462.801 -35.03 466.794 -32.109 471.062C-31.908 471.355 -31.694 471.651 -31.472 471.951L-34.946 474.53L-31.583 471.808L72.986 601.024L69.624 603.745L72.135 600.223L69.624 603.745Z" fill="#231F20"/>
<path d="M118.998 552.776C106.27 534.277 98.882 513.756 96.269 492.92L96.203 492.925L96.219 492.49C94.899 481.785 94.922 471.021 96.162 460.402L95.812 253.485L95.897 253.467C89.659 204.721 110.145 154.303 153.413 124.536C202.372 90.8544 265.548 93.8638 310.766 127.307L310.777 127.204L413.716 265.459L412.526 515.368L307.491 587.629C245.823 630.054 161.423 614.444 118.998 552.776Z" fill="url(#paint0_linear)"/>
<path d="M118.998 552.776L115.433 555.23C102.299 536.141 94.669 514.944 91.975 493.459L96.269 492.92L96.547 497.238L96.479 497.243C95.261 497.321 94.059 496.876 93.185 496.024C92.31 495.174 91.833 493.983 91.878 492.763L91.894 492.328L96.219 492.49L91.925 493.019C90.56 481.959 90.585 470.848 91.866 459.899L96.162 460.402L91.836 460.41L91.486 253.491C91.481 251.441 92.929 249.662 94.938 249.247L95.023 249.229L95.897 253.467L91.605 254.016C88.388 228.863 92.061 203.295 102.123 180.158C112.18 157.024 128.647 136.321 150.961 120.971C176.208 103.599 205.164 95.6764 233.605 96.4255C262.048 97.1716 290.002 106.571 313.34 123.829L310.766 127.307L306.463 126.864L306.474 126.761C306.655 124.981 307.903 123.509 309.629 123.032C311.354 122.557 313.179 123.185 314.248 124.62L417.186 262.876C417.749 263.632 418.047 264.537 418.042 265.48L416.853 515.389C416.845 516.806 416.147 518.129 414.978 518.933L309.943 591.194C246.303 634.972 159.215 618.865 115.433 555.23L122.562 550.325C143.106 580.183 173.779 598.869 206.815 604.983C239.853 611.087 275.176 604.607 305.038 584.064L408.21 513.086L409.382 266.885L307.308 129.788L310.777 127.204L315.082 127.647L315.071 127.751C314.91 129.304 313.94 130.636 312.514 131.266C311.085 131.895 309.447 131.714 308.194 130.786C286.311 114.601 260.067 105.774 233.379 105.076C206.687 104.378 179.576 111.791 155.866 128.101C134.912 142.519 119.499 161.905 110.058 183.609C100.619 205.313 97.169 229.323 100.187 252.917C100.474 255.157 98.983 257.248 96.773 257.704L96.688 257.722L95.812 253.485L100.139 253.477L100.489 460.395C100.488 460.575 100.481 460.725 100.46 460.903C99.257 471.194 99.237 481.613 100.513 491.959C100.544 492.214 100.552 492.395 100.543 492.651L100.527 493.086L96.203 492.925L95.925 488.606L95.989 488.602C98.27 488.455 100.276 490.115 100.561 492.381C103.096 512.568 110.24 532.413 122.562 550.325L118.998 552.776Z" fill="#231F20"/>
<path d="M457.702 274.806C476.415 261.93 476.949 239.189 458.866 224.057L288.598 81.4667C270.534 66.3216 240.71 64.4787 221.978 77.3663L45.684 198.65C26.969 211.525 26.459 234.238 44.521 249.383L214.782 391.98C232.854 407.118 262.705 408.956 281.41 396.088L457.702 274.806Z" fill="#231F20"/>
<path d="M457.701 274.805L455.249 271.241C462.228 266.422 466.099 260.361 467.338 254.054C468.556 247.741 467.178 241.03 462.85 234.711C461.096 232.161 458.85 229.689 456.089 227.377L285.82 84.7834C277.632 77.902 266.503 73.9055 255.272 73.2225C244.039 72.5209 232.813 75.1435 224.429 80.9307L48.137 202.215C41.154 207.035 37.288 213.092 36.052 219.397C34.838 225.707 36.22 232.417 40.551 238.737C42.303 241.286 44.542 243.757 47.298 246.066L217.56 388.664C225.748 395.539 236.888 399.534 248.125 400.219C259.362 400.921 270.587 398.302 278.957 392.523L455.249 271.241L460.154 278.37L283.861 399.652C273.525 406.744 260.474 409.639 247.592 408.856C234.708 408.052 221.887 403.558 212.003 395.297L41.742 252.699C38.425 249.92 35.644 246.873 33.421 243.643C27.909 235.656 25.855 226.452 27.558 217.745C29.24 209.035 34.645 200.975 43.232 195.085L219.525 73.8012C229.873 66.7025 242.925 63.8016 255.804 64.5863C268.685 65.389 281.498 69.8856 291.377 78.1499L461.645 220.742C464.965 223.521 467.751 226.57 469.978 229.807C475.492 237.794 477.539 247.001 475.832 255.707C474.145 264.421 468.74 272.481 460.154 278.37L457.701 274.805Z" fill="#231F20"/>
<path d="M346.829 316.399C401.227 278.975 402.735 212.961 350.202 168.943C297.656 124.948 210.973 119.62 156.566 157.05C102.159 194.481 100.633 260.492 153.17 304.493C205.725 348.498 292.413 353.835 346.829 316.399Z" fill="url(#paint1_linear)"/>
<path d="M346.829 316.399L344.377 312.834C366.198 297.804 378.904 278.294 382.925 257.682C386.925 237.063 382.272 215.188 368.56 195.232C363.012 187.168 355.977 179.429 347.422 172.259C321.998 150.955 288.033 138.874 253.816 136.781C219.6 134.669 185.24 142.556 159.019 160.614C137.192 175.648 124.48 195.157 120.454 215.77C116.451 236.386 121.096 258.257 134.804 278.207C140.352 286.271 147.387 294.01 155.949 301.175C181.379 322.487 215.348 334.573 249.567 336.668C283.788 338.783 318.15 330.897 344.377 312.834L349.282 319.963C321.091 339.337 284.902 347.501 249.037 345.306C213.169 343.091 177.516 330.506 150.393 307.81C141.273 300.174 133.695 291.862 127.675 283.112C112.784 261.495 107.467 237.128 111.961 214.114C116.436 191.097 130.684 169.587 154.114 153.485C182.298 134.115 218.485 125.949 254.347 128.144C290.21 130.357 325.858 142.936 352.979 165.625C362.092 173.265 369.669 181.576 375.689 190.327C390.584 211.949 395.907 236.32 391.419 259.333C386.952 282.354 372.708 303.864 349.282 319.963L346.829 316.399Z" fill="#231F20"/>
<path d="M34.425 550.714C34.425 550.714 62.447 588.88 71.87 566.258C81.272 543.624 34.425 550.714 34.425 550.714Z" fill="#918F90"/>
<path d="M25.113 499.463C49.589 498.365 26.912 539.951 26.912 539.951C26.912 539.951 0.627977 500.551 25.113 499.463Z" fill="#918F90"/>
<path d="M140.087 354.934C138.606 352.781 136.098 351.361 133.241 351.385C128.707 351.412 125.044 355.136 125.082 359.665L126.049 482.074C126.089 486.628 129.802 490.295 134.349 490.245C138.887 490.201 142.549 486.479 142.517 481.959L141.536 359.545C141.536 357.836 140.995 356.254 140.087 354.934Z" fill="#393536"/>
<path d="M131.682 360.909L132.659 483.297C132.685 486.056 134.145 488.376 136.248 489.842C135.603 489.999 135.015 490.237 134.349 490.245C129.802 490.295 126.089 486.628 126.049 482.074L125.082 359.665C125.044 355.136 128.707 351.412 133.241 351.385C135.07 351.357 136.728 351.98 138.086 352.96C134.415 353.846 131.654 356.99 131.682 360.909Z" fill="url(#paint2_linear)"/>
<path d="M180.318 388.802C178.824 386.63 176.315 385.211 173.484 385.229C168.942 385.249 165.294 388.989 165.307 393.521L166.279 515.942C166.302 520.467 170.031 524.138 174.583 524.097C179.108 524.074 182.77 520.351 182.727 515.814L181.77 393.397C181.762 391.694 181.225 390.119 180.318 388.802Z" fill="#393536"/>
<path d="M171.919 394.744L172.9 517.157C172.925 519.918 174.384 522.237 176.481 523.693C175.852 523.852 175.255 524.099 174.583 524.097C170.031 524.138 166.302 520.467 166.279 515.942L165.307 393.521C165.294 388.989 168.942 385.249 173.484 385.229C175.303 385.209 176.943 385.844 178.326 386.821C174.659 387.691 171.896 390.835 171.919 394.744Z" fill="url(#paint3_linear)"/>
<path d="M220.152 418.154C218.651 415.973 216.124 414.567 213.302 414.58C208.757 414.615 205.09 418.328 205.132 422.882L206.116 545.279C206.126 549.826 209.854 553.497 214.395 553.438C218.952 553.421 222.581 549.693 222.549 545.174L221.588 422.747C221.572 421.034 221.047 419.454 220.152 418.154Z" fill="#393536"/>
<path d="M211.744 424.104L212.703 546.505C212.74 549.242 214.18 551.575 216.287 553.066C215.676 553.213 215.09 553.452 214.395 553.438C209.854 553.497 206.126 549.826 206.116 545.279L205.132 422.882C205.09 418.328 208.757 414.615 213.302 414.58C215.112 414.567 216.756 415.185 218.126 416.185C214.469 417.032 211.701 420.167 211.744 424.104Z" fill="url(#paint4_linear)"/>
<path d="M340.067 461.372L312.586 422.74C312.586 422.74 171.484 542.612 126.663 580.738C81.824 618.835 62.654 594.686 62.654 594.686C62.654 594.686 104.216 657.685 137.421 634.841C157.565 620.983 340.067 461.372 340.067 461.372Z" fill="#393536"/>
<path d="M340.067 461.372L336.541 463.88L309.061 425.249L312.586 422.74L315.387 426.038C315.387 426.038 306.568 433.53 292.639 445.364C250.853 480.864 163.08 555.441 129.467 584.033C125.395 587.493 121.514 590.466 117.811 593.013C108.278 599.571 99.925 603.308 92.663 605.136C87.219 606.508 82.393 606.794 78.234 606.393C71.988 605.797 67.288 603.654 64.175 601.613C61.054 599.57 59.484 597.65 59.264 597.376L62.654 594.686L66.266 592.306L66.292 592.342C66.349 592.433 66.513 592.676 66.774 593.055C67.975 594.801 71.233 599.401 75.891 604.957C82.862 613.293 93.06 623.757 103.824 629.935C109.199 633.037 114.66 635.047 119.835 635.432C122.428 635.626 124.956 635.432 127.46 634.777C129.964 634.12 132.453 633.005 134.968 631.277C136.067 630.52 137.931 629.114 140.333 627.214C149.385 620.063 166.288 605.864 186.458 588.658C216.727 562.84 254.421 530.201 284.543 504.019C299.604 490.929 312.775 479.452 322.178 471.248C326.879 467.146 330.641 463.862 333.225 461.606C335.809 459.348 337.214 458.119 337.22 458.115L340.067 461.372L336.541 463.88L340.067 461.372L342.915 464.63C342.912 464.632 297.282 504.538 249.128 546.181C225.049 567.005 200.341 588.261 180.379 605.19C170.399 613.655 161.605 621.037 154.66 626.749C151.186 629.607 148.175 632.047 145.698 634.004C143.215 635.965 141.291 637.428 139.873 638.406C135.489 641.428 130.825 643.197 126.154 643.85C122.066 644.426 117.993 644.165 114.052 643.299C107.148 641.778 100.629 638.457 94.61 634.348C85.589 628.176 77.652 620.18 71.537 613.177C65.426 606.174 61.16 600.16 59.645 597.96C59.261 597.402 59.054 597.087 59.039 597.065C57.768 595.136 58.244 592.537 60.116 591.182C61.987 589.826 64.606 590.185 66.042 591.996L64.709 593.053L66.011 591.959L66.042 591.996L64.709 593.053L66.011 591.959C66.048 592.001 66.951 593.061 68.734 594.254C71.43 596.04 76.003 598.173 83.105 597.876C90.206 597.563 100.024 594.741 112.907 585.883C116.344 583.518 119.996 580.724 123.861 577.44C168.683 539.314 309.784 419.444 309.784 419.444C310.703 418.663 311.926 418.298 313.121 418.446C314.317 418.596 315.411 419.252 316.11 420.233L343.592 458.864C344.878 460.673 344.586 463.167 342.915 464.63L340.067 461.372Z" fill="#231F20"/>
<path d="M341.845 480.021C360.578 467.132 365.314 441.513 352.427 422.78C339.553 404.066 313.934 399.33 295.199 412.219C276.477 425.099 271.741 450.718 284.615 469.432C297.503 488.165 323.122 492.901 341.845 480.021Z" fill="#393536"/>
<path d="M341.845 480.021L339.392 476.456C347.785 470.68 353.018 462.087 354.739 452.805C356.451 443.523 354.635 433.629 348.863 425.233C343.092 416.851 334.503 411.622 325.224 409.904C315.943 408.194 306.047 410.009 297.651 415.783C289.264 421.555 284.034 430.146 282.312 439.425C280.601 448.706 282.414 458.596 288.179 466.981C293.956 475.373 302.548 480.606 311.827 482.327C321.11 484.038 331.003 482.226 339.392 476.456L344.297 483.586C333.963 490.697 321.686 492.956 310.254 490.836C298.824 488.727 288.161 482.225 281.051 471.884C273.94 461.555 271.684 449.278 273.803 437.852C275.913 426.422 282.411 415.763 292.747 408.654C303.086 401.539 315.366 399.278 326.795 401.393C338.227 403.5 348.886 409.996 355.991 420.328C363.106 430.666 365.368 442.947 363.248 454.38C361.14 465.813 354.638 476.473 344.297 483.586L341.845 480.021Z" fill="#231F20"/>
</g>
<defs>
<linearGradient id="paint0_linear" x1="128.613" y1="361.856" x2="369.973" y2="348.219" gradientUnits="userSpaceOnUse">
<stop stop-color="#231F20"/>
<stop offset="0.427271" stop-color="#393536"/>
<stop offset="0.48" stop-color="#393536"/>
<stop offset="0.682233" stop-color="#393536"/>
<stop offset="1" stop-color="#231F20"/>
</linearGradient>
<linearGradient id="paint1_linear" x1="124.149" y1="226.248" x2="370.958" y2="240.685" gradientUnits="userSpaceOnUse">
<stop stop-color="#FBF1C8"/>
<stop offset="0.011236" stop-color="#FBF1C8"/>
<stop offset="0.174157" stop-color="#F8DA91"/>
<stop offset="0.297753" stop-color="#F9E4A1"/>
<stop offset="0.539326" stop-color="#EACF93"/>
<stop offset="0.657303" stop-color="#F1D292"/>
<stop offset="0.780899" stop-color="#FBEFCB"/>
<stop offset="0.960674" stop-color="#F8E2AE"/>
<stop offset="1" stop-color="#F8E2AE"/>
</linearGradient>
<linearGradient id="paint2_linear" x1="131.565" y1="351.601" x2="132.121" y2="487.317" gradientUnits="userSpaceOnUse">
<stop stop-color="#231F20"/>
<stop offset="0.427271" stop-color="#393536"/>
<stop offset="0.48" stop-color="#393536"/>
<stop offset="0.682233" stop-color="#393536"/>
<stop offset="1" stop-color="#231F20"/>
</linearGradient>
<linearGradient id="paint3_linear" x1="171.797" y1="385.445" x2="172.353" y2="521.168" gradientUnits="userSpaceOnUse">
<stop stop-color="#231F20"/>
<stop offset="0.427271" stop-color="#393536"/>
<stop offset="0.48" stop-color="#393536"/>
<stop offset="0.682233" stop-color="#393536"/>
<stop offset="1" stop-color="#231F20"/>
</linearGradient>
<linearGradient id="paint4_linear" x1="211.609" y1="414.796" x2="212.166" y2="550.509" gradientUnits="userSpaceOnUse">
<stop stop-color="#231F20"/>
<stop offset="0.427271" stop-color="#393536"/>
<stop offset="0.48" stop-color="#393536"/>
<stop offset="0.682233" stop-color="#393536"/>
<stop offset="1" stop-color="#231F20"/>
</linearGradient>
<clipPath id="clip0">
<rect width="488" height="690" fill="white" transform="matrix(-1 0 0 1 488 0)"/>
</clipPath>
</defs>
</svg>
