<svg width="488" height="690" viewBox="0 0 488 690" fill="none" xmlns="http://www.w3.org/2000/svg">
<g clip-path="url(#clip0)">
<path d="M278.736 296.649L306.232 258.013L507.391 423.209L528.717 457.412L504.176 490.339C484.061 476.5 278.736 296.649 278.736 296.649Z" fill="#393536"/>
<path d="M278.736 296.649L282.263 299.156L307.069 264.3L504.096 426.103L523.484 457.196L500.707 487.754L504.176 490.339L506.629 486.774C505.551 486.035 503.594 484.545 501.025 482.499C491.35 474.795 472.725 459.067 450.324 439.882C416.711 411.095 374.521 374.47 340.742 345.044C323.851 330.332 309.062 317.419 298.497 308.184C293.214 303.566 288.985 299.868 286.079 297.326C283.173 294.782 281.593 293.397 281.588 293.394L278.736 296.649L282.263 299.156L278.736 296.649L275.886 299.903C275.89 299.906 327.223 344.871 381.079 391.574C408.007 414.925 435.565 438.71 457.66 457.53C468.708 466.942 478.39 475.111 485.954 481.376C489.74 484.509 492.994 487.164 495.636 489.268C498.286 491.377 500.29 492.915 501.725 493.904C503.64 495.221 506.258 494.788 507.647 492.924L532.187 459.997C533.249 458.573 533.33 456.631 532.39 455.122L511.062 420.921C510.807 420.512 510.507 420.171 510.136 419.865L308.977 254.67C308.046 253.905 306.854 253.566 305.661 253.725C304.467 253.884 303.405 254.524 302.707 255.505L275.211 294.141C273.925 295.948 274.216 298.441 275.886 299.903L278.736 296.649Z" fill="#231F20"/>
<path d="M418.376 603.745L522.946 474.53C545.019 444.749 496.907 414.63 496.907 414.63C496.907 414.63 526.403 452.168 505.029 478.862L387.275 625.934L418.376 603.745Z" fill="#231F20"/>
<path d="M418.376 603.745L421.74 606.467L526.309 477.253L526.419 477.11C526.702 476.73 526.975 476.35 527.239 475.966C529.751 472.316 531.408 468.557 532.286 464.805C533.832 458.228 532.953 451.799 530.788 446.045C527.523 437.394 521.5 430.032 515.652 424.235C509.791 418.449 504.05 414.253 501.149 412.255C499.959 411.437 499.248 410.99 499.198 410.96C497.416 409.847 495.092 410.175 493.687 411.739C492.284 413.304 492.207 415.649 493.504 417.303L494.354 416.635L493.502 417.299L493.504 417.303L494.354 416.635L493.502 417.299C493.569 417.369 500.304 426.067 504.671 437.56C506.864 443.301 508.453 449.713 508.474 456.018C508.487 462.336 507.021 468.492 503.058 474.269C502.621 474.904 502.155 475.533 501.655 476.154L501.652 476.158L383.896 623.23C382.55 624.913 382.65 627.343 384.131 628.909C385.612 630.474 388.034 630.708 389.787 629.456L420.89 607.267C421.221 607.033 421.487 606.782 421.74 606.467L418.376 603.745L415.865 600.223L410.124 604.318L508.406 481.567L508.403 481.572C509.04 480.779 509.633 479.979 510.187 479.174C515.313 471.739 517.2 463.555 517.126 455.8C517.012 444.138 512.754 433.31 508.634 425.3C504.497 417.295 500.422 412.104 500.31 411.958L496.907 414.63L494.614 418.3L494.626 418.307C494.726 418.369 495.308 418.74 496.244 419.384C498.237 420.753 501.832 423.365 505.791 426.865C511.738 432.099 518.445 439.396 521.885 447.143C523.619 451.016 524.554 454.949 524.398 458.873C524.231 462.801 523.03 466.794 520.109 471.062C519.908 471.355 519.694 471.651 519.472 471.951L522.946 474.53L519.583 471.808L415.014 601.024L418.376 603.745L415.865 600.223L418.376 603.745Z" fill="#231F20"/>
<path d="M369.002 552.776C381.73 534.277 389.118 513.756 391.731 492.92L391.797 492.925L391.781 492.49C393.101 481.785 393.078 471.021 391.838 460.402L392.188 253.485L392.103 253.467C398.341 204.721 377.855 154.303 334.587 124.536C285.628 90.8544 222.452 93.8638 177.234 127.307L177.223 127.204L74.2844 265.459L75.4737 515.368L180.509 587.629C242.177 630.054 326.577 614.444 369.002 552.776Z" fill="url(#paint0_linear)"/>
<path d="M369.002 552.776L372.567 555.23C385.701 536.141 393.331 514.944 396.025 493.459L391.731 492.92L391.453 497.238L391.521 497.243C392.739 497.321 393.941 496.876 394.815 496.024C395.69 495.174 396.167 493.983 396.122 492.763L396.106 492.328L391.781 492.49L396.075 493.019C397.44 481.959 397.415 470.848 396.134 459.899L391.838 460.402L396.164 460.41L396.514 253.491C396.519 251.441 395.071 249.662 393.062 249.247L392.977 249.229L392.103 253.467L396.395 254.016C399.612 228.863 395.939 203.295 385.877 180.158C375.82 157.024 359.353 136.321 337.039 120.971C311.792 103.599 282.836 95.6764 254.395 96.4255C225.952 97.1716 197.998 106.571 174.66 123.829L177.234 127.307L181.537 126.864L181.526 126.761C181.345 124.981 180.097 123.509 178.371 123.032C176.646 122.557 174.821 123.185 173.752 124.62L70.8141 262.876C70.2507 263.632 69.9534 264.537 69.9576 265.48L71.1474 515.389C71.1545 516.806 71.8532 518.129 73.0215 518.933L178.057 591.194C241.697 634.972 328.785 618.865 372.567 555.23L365.438 550.325C344.894 580.183 314.221 598.869 281.185 604.983C248.147 611.087 212.824 604.607 182.962 584.064L79.7903 513.086L78.6178 266.885L180.692 129.788L177.223 127.204L172.918 127.647L172.929 127.751C173.09 129.304 174.06 130.636 175.486 131.266C176.915 131.895 178.553 131.714 179.806 130.786C201.689 114.601 227.933 105.774 254.621 105.076C281.313 104.378 308.424 111.791 332.134 128.101C353.088 142.519 368.501 161.905 377.942 183.609C387.381 205.313 390.831 229.323 387.813 252.917C387.526 255.157 389.017 257.248 391.227 257.704L391.312 257.722L392.188 253.485L387.861 253.477L387.511 460.395C387.512 460.575 387.519 460.725 387.54 460.903C388.743 471.194 388.763 481.613 387.487 491.959C387.456 492.214 387.448 492.395 387.457 492.651L387.473 493.086L391.797 492.925L392.075 488.606L392.011 488.602C389.73 488.455 387.724 490.115 387.439 492.381C384.904 512.568 377.76 532.413 365.438 550.325L369.002 552.776Z" fill="#231F20"/>
<path d="M30.2984 274.806C11.5845 261.93 11.0506 239.189 29.1337 224.057L199.402 81.4667C217.466 66.3216 247.29 64.4787 266.022 77.3663L442.316 198.65C461.031 211.525 461.541 234.238 443.479 249.383L273.218 391.98C255.146 407.118 225.295 408.956 206.59 396.088L30.2984 274.806Z" fill="#231F20"/>
<path d="M30.299 274.805L32.751 271.241C25.7725 266.422 21.9014 260.361 20.6619 254.054C19.4438 247.741 20.8224 241.03 25.1498 234.711C26.9041 232.161 29.1498 229.689 31.9114 227.377L202.18 84.7834C210.368 77.902 221.497 73.9055 232.728 73.2225C243.961 72.5209 255.187 75.1435 263.571 80.9307L439.863 202.215C446.846 207.035 450.712 213.092 451.948 219.397C453.162 225.707 451.78 232.417 447.449 238.737C445.697 241.286 443.458 243.757 440.702 246.066L270.44 388.664C262.252 395.539 251.112 399.534 239.875 400.219C228.638 400.921 217.413 398.302 209.043 392.523L32.751 271.241L27.8464 278.37L204.139 399.652C214.475 406.744 227.526 409.639 240.408 408.856C253.292 408.052 266.113 403.558 275.997 395.297L446.258 252.699C449.575 249.92 452.356 246.873 454.579 243.643C460.091 235.656 462.145 226.452 460.442 217.745C458.76 209.035 453.355 200.975 444.768 195.085L268.475 73.8012C258.127 66.7025 245.075 63.8016 232.196 64.5863C219.315 65.389 206.502 69.8856 196.623 78.1499L26.3551 220.742C23.0351 223.521 20.2492 226.57 18.0222 229.807C12.508 237.794 10.4608 247.001 12.1681 255.707C13.8549 264.421 19.26 272.481 27.8464 278.37L30.299 274.805Z" fill="#231F20"/>
<path d="M141.171 316.399C86.7733 278.975 85.2649 212.961 137.798 168.943C190.344 124.948 277.027 119.62 331.434 157.05C385.841 194.481 387.367 260.492 334.83 304.493C282.275 348.498 195.587 353.835 141.171 316.399Z" fill="url(#paint1_linear)"/>
<path d="M141.171 316.399L143.623 312.834C121.802 297.804 109.096 278.294 105.075 257.682C101.075 237.063 105.728 215.188 119.44 195.232C124.988 187.168 132.023 179.429 140.578 172.259C166.002 150.955 199.967 138.874 234.184 136.781C268.4 134.669 302.76 142.556 328.981 160.614C350.808 175.648 363.52 195.157 367.546 215.77C371.549 236.386 366.904 258.257 353.196 278.207C347.648 286.271 340.613 294.01 332.051 301.175C306.621 322.487 272.652 334.573 238.433 336.668C204.212 338.783 169.85 330.897 143.623 312.834L138.718 319.963C166.909 339.337 203.098 347.501 238.963 345.306C274.831 343.091 310.484 330.506 337.607 307.81C346.727 300.174 354.305 291.862 360.325 283.112C375.216 261.495 380.533 237.128 376.039 214.114C371.564 191.097 357.316 169.587 333.886 153.485C305.702 134.115 269.515 125.949 233.653 128.144C197.79 130.357 162.142 142.936 135.021 165.625C125.908 173.265 118.331 181.576 112.311 190.327C97.4157 211.949 92.0928 236.32 96.5807 259.333C101.048 282.354 115.292 303.864 138.718 319.963L141.171 316.399Z" fill="#231F20"/>
<path d="M453.575 550.714C453.575 550.714 425.553 588.88 416.13 566.258C406.728 543.624 453.575 550.714 453.575 550.714Z" fill="#918F90"/>
<path d="M462.887 499.463C438.411 498.365 461.088 539.951 461.088 539.951C461.088 539.951 487.372 500.551 462.887 499.463Z" fill="#918F90"/>
<path d="M347.913 354.934C349.394 352.781 351.902 351.361 354.759 351.385C359.293 351.412 362.956 355.136 362.918 359.665L361.951 482.074C361.911 486.628 358.198 490.295 353.651 490.245C349.113 490.201 345.451 486.479 345.483 481.959L346.464 359.545C346.464 357.836 347.005 356.254 347.913 354.934Z" fill="#393536"/>
<path d="M356.318 360.909L355.341 483.297C355.315 486.056 353.855 488.376 351.752 489.842C352.397 489.999 352.985 490.237 353.651 490.245C358.198 490.295 361.911 486.628 361.951 482.074L362.918 359.665C362.956 355.136 359.293 351.412 354.759 351.385C352.93 351.357 351.272 351.98 349.914 352.96C353.585 353.846 356.346 356.99 356.318 360.909Z" fill="url(#paint2_linear)"/>
<path d="M307.682 388.802C309.176 386.63 311.685 385.211 314.516 385.229C319.058 385.249 322.706 388.989 322.693 393.521L321.721 515.942C321.698 520.467 317.969 524.138 313.417 524.097C308.892 524.074 305.23 520.351 305.273 515.814L306.23 393.397C306.238 391.694 306.775 390.119 307.682 388.802Z" fill="#393536"/>
<path d="M316.081 394.744L315.1 517.157C315.075 519.918 313.616 522.237 311.519 523.693C312.148 523.852 312.745 524.099 313.417 524.097C317.969 524.138 321.698 520.467 321.721 515.942L322.693 393.521C322.706 388.989 319.058 385.249 314.516 385.229C312.697 385.209 311.057 385.844 309.674 386.821C313.341 387.691 316.104 390.835 316.081 394.744Z" fill="url(#paint3_linear)"/>
<path d="M267.848 418.154C269.349 415.973 271.876 414.567 274.698 414.58C279.243 414.615 282.91 418.328 282.868 422.882L281.884 545.279C281.874 549.826 278.146 553.497 273.605 553.438C269.048 553.421 265.419 549.693 265.451 545.174L266.412 422.747C266.428 421.034 266.953 419.454 267.848 418.154Z" fill="#393536"/>
<path d="M276.256 424.104L275.297 546.505C275.26 549.242 273.82 551.575 271.713 553.066C272.324 553.213 272.91 553.452 273.605 553.438C278.146 553.497 281.874 549.826 281.884 545.279L282.868 422.882C282.91 418.328 279.243 414.615 274.698 414.58C272.888 414.567 271.244 415.185 269.874 416.185C273.531 417.032 276.299 420.167 276.256 424.104Z" fill="url(#paint4_linear)"/>
<path d="M147.933 461.372L175.414 422.74C175.414 422.74 316.516 542.612 361.337 580.738C406.176 618.835 425.346 594.686 425.346 594.686C425.346 594.686 383.784 657.685 350.579 634.841C330.435 620.983 147.933 461.372 147.933 461.372Z" fill="#393536"/>
<path d="M147.933 461.372L151.459 463.88L178.939 425.249L175.414 422.74L172.613 426.038C172.613 426.038 181.432 433.53 195.361 445.364C237.147 480.864 324.92 555.441 358.533 584.033C362.605 587.493 366.486 590.466 370.189 593.013C379.722 599.571 388.075 603.308 395.337 605.136C400.781 606.508 405.607 606.794 409.766 606.393C416.012 605.797 420.712 603.654 423.825 601.613C426.946 599.57 428.516 597.65 428.736 597.376L425.346 594.686L421.734 592.306L421.708 592.342C421.651 592.433 421.487 592.676 421.226 593.055C420.025 594.801 416.767 599.401 412.109 604.957C405.138 613.293 394.94 623.757 384.176 629.935C378.801 633.037 373.34 635.047 368.165 635.432C365.572 635.626 363.044 635.432 360.54 634.777C358.036 634.12 355.547 633.005 353.032 631.277C351.933 630.52 350.069 629.114 347.667 627.214C338.615 620.063 321.712 605.864 301.542 588.658C271.273 562.84 233.579 530.201 203.457 504.019C188.396 490.929 175.225 479.452 165.822 471.248C161.121 467.146 157.359 463.862 154.775 461.606C152.191 459.348 150.786 458.119 150.78 458.115L147.933 461.372L151.459 463.88L147.933 461.372L145.085 464.63C145.088 464.632 190.718 504.538 238.872 546.181C262.951 567.005 287.659 588.261 307.621 605.19C317.601 613.655 326.395 621.037 333.34 626.749C336.814 629.607 339.825 632.047 342.302 634.004C344.785 635.965 346.709 637.428 348.127 638.406C352.511 641.428 357.175 643.197 361.846 643.85C365.934 644.426 370.007 644.165 373.948 643.299C380.852 641.778 387.371 638.457 393.39 634.348C402.411 628.176 410.348 620.18 416.463 613.177C422.574 606.174 426.84 600.16 428.355 597.96C428.739 597.402 428.946 597.087 428.961 597.065C430.232 595.136 429.756 592.537 427.884 591.182C426.013 589.826 423.394 590.185 421.958 591.996L423.291 593.053L421.989 591.959L421.958 591.996L423.291 593.053L421.989 591.959C421.952 592.001 421.049 593.061 419.266 594.254C416.57 596.04 411.997 598.173 404.895 597.876C397.794 597.563 387.976 594.741 375.093 585.883C371.656 583.518 368.004 580.724 364.139 577.44C319.317 539.314 178.216 419.444 178.216 419.444C177.297 418.663 176.074 418.298 174.879 418.446C173.683 418.596 172.589 419.252 171.89 420.233L144.408 458.864C143.122 460.673 143.414 463.167 145.085 464.63L147.933 461.372Z" fill="#231F20"/>
<path d="M146.155 480.021C127.422 467.132 122.686 441.513 135.573 422.78C148.447 404.066 174.066 399.33 192.801 412.219C211.523 425.099 216.259 450.718 203.385 469.432C190.497 488.165 164.878 492.901 146.155 480.021Z" fill="#393536"/>
<path d="M146.155 480.021L148.608 476.456C140.215 470.68 134.982 462.087 133.261 452.805C131.549 443.523 133.365 433.629 139.137 425.233C144.908 416.851 153.497 411.622 162.776 409.904C172.057 408.194 181.953 410.009 190.349 415.783C198.736 421.555 203.966 430.146 205.688 439.425C207.399 448.706 205.586 458.596 199.821 466.981C194.044 475.373 185.452 480.606 176.173 482.327C166.89 484.038 156.997 482.226 148.608 476.456L143.703 483.586C154.037 490.697 166.314 492.956 177.746 490.836C189.176 488.727 199.839 482.225 206.949 471.884C214.06 461.555 216.316 449.278 214.197 437.852C212.087 426.422 205.589 415.763 195.253 408.654C184.914 401.539 172.634 399.278 161.205 401.393C149.773 403.5 139.114 409.996 132.009 420.328C124.894 430.666 122.632 442.947 124.752 454.38C126.86 465.813 133.362 476.473 143.703 483.586L146.155 480.021Z" fill="#231F20"/>
</g>
<defs>
<linearGradient id="paint0_linear" x1="359.387" y1="361.856" x2="118.027" y2="348.219" gradientUnits="userSpaceOnUse">
<stop stop-color="#231F20"/>
<stop offset="0.427271" stop-color="#393536"/>
<stop offset="0.48" stop-color="#393536"/>
<stop offset="0.682233" stop-color="#393536"/>
<stop offset="1" stop-color="#231F20"/>
</linearGradient>
<linearGradient id="paint1_linear" x1="363.851" y1="226.248" x2="117.042" y2="240.685" gradientUnits="userSpaceOnUse">
<stop stop-color="#FBF1C8"/>
<stop offset="0.011236" stop-color="#FBF1C8"/>
<stop offset="0.174157" stop-color="#F8DA91"/>
<stop offset="0.297753" stop-color="#F9E4A1"/>
<stop offset="0.539326" stop-color="#EACF93"/>
<stop offset="0.657303" stop-color="#F1D292"/>
<stop offset="0.780899" stop-color="#FBEFCB"/>
<stop offset="0.960674" stop-color="#F8E2AE"/>
<stop offset="1" stop-color="#F8E2AE"/>
</linearGradient>
<linearGradient id="paint2_linear" x1="356.435" y1="351.601" x2="355.879" y2="487.317" gradientUnits="userSpaceOnUse">
<stop stop-color="#231F20"/>
<stop offset="0.427271" stop-color="#393536"/>
<stop offset="0.48" stop-color="#393536"/>
<stop offset="0.682233" stop-color="#393536"/>
<stop offset="1" stop-color="#231F20"/>
</linearGradient>
<linearGradient id="paint3_linear" x1="316.203" y1="385.445" x2="315.647" y2="521.168" gradientUnits="userSpaceOnUse">
<stop stop-color="#231F20"/>
<stop offset="0.427271" stop-color="#393536"/>
<stop offset="0.48" stop-color="#393536"/>
<stop offset="0.682233" stop-color="#393536"/>
<stop offset="1" stop-color="#231F20"/>
</linearGradient>
<linearGradient id="paint4_linear" x1="276.391" y1="414.796" x2="275.834" y2="550.509" gradientUnits="userSpaceOnUse">
<stop stop-color="#231F20"/>
<stop offset="0.427271" stop-color="#393536"/>
<stop offset="0.48" stop-color="#393536"/>
<stop offset="0.682233" stop-color="#393536"/>
<stop offset="1" stop-color="#231F20"/>
</linearGradient>
<clipPath id="clip0">
<rect width="486" height="507" fill="white" transform="translate(-103 397.785) rotate(-54.9337)"/>
</clipPath>
</defs>
</svg>
