<svg width="551" height="810" viewBox="0 0 551 810" fill="none" xmlns="http://www.w3.org/2000/svg">
<g clip-path="url(#clip0)" filter="url(#filter0_d)">
<g clip-path="url(#clip1)">
<path d="M268.264 312.649L240.768 274.013L39.6093 439.209L18.2826 473.412L42.8237 506.339C62.9392 492.5 268.264 312.649 268.264 312.649Z" fill="#393536"/>
<path d="M268.264 312.649L264.737 315.156L239.931 280.3L42.9036 442.103L23.5156 473.196L46.2929 503.754L42.8236 506.339L40.3712 502.774C41.4491 502.035 43.4063 500.545 45.975 498.499C55.65 490.795 74.275 475.067 96.6757 455.882C130.289 427.095 172.479 390.47 206.258 361.044C223.149 346.332 237.938 333.419 248.503 324.184C253.786 319.566 258.015 315.868 260.921 313.326C263.827 310.782 265.407 309.397 265.412 309.394L268.264 312.649L264.737 315.156L268.264 312.649L271.114 315.903C271.11 315.906 219.777 360.871 165.921 407.574C138.993 430.925 111.435 454.71 89.3403 473.53C78.2922 482.942 68.6102 491.111 61.0457 497.376C57.2603 500.509 54.0063 503.164 51.3644 505.268C48.7137 507.377 46.7099 508.915 45.2755 509.904C43.3598 511.221 40.7416 510.788 39.353 508.924L14.8133 475.997C13.7512 474.573 13.6699 472.631 14.6104 471.122L35.9383 436.921C36.1928 436.512 36.4931 436.171 36.8639 435.865L238.023 270.67C238.954 269.905 240.146 269.566 241.339 269.725C242.533 269.884 243.595 270.524 244.293 271.505L271.789 310.141C273.075 311.948 272.784 314.441 271.114 315.903L268.264 312.649Z" fill="#231F20"/>
<path d="M128.624 619.745L24.0541 490.53C1.98063 460.749 50.0931 430.63 50.0931 430.63C50.0931 430.63 20.5972 468.168 41.9708 494.862L159.725 641.934L128.624 619.745Z" fill="#231F20"/>
<path d="M128.624 619.745L125.26 622.467L20.6907 493.253L20.5808 493.11C20.2984 492.73 20.0254 492.35 19.761 491.966C17.2488 488.316 15.5921 484.557 14.7143 480.805C13.1678 474.228 14.0468 467.799 16.2123 462.045C19.4768 453.394 25.5005 446.032 31.3484 440.235C37.2089 434.449 42.9502 430.253 45.8507 428.255C47.0406 427.437 47.752 426.99 47.8018 426.96C49.5839 425.847 51.9083 426.175 53.3128 427.739C54.7165 429.304 54.7931 431.649 53.4956 433.303L52.6456 432.635L53.4977 433.299L53.4956 433.303L52.6456 432.635L53.4977 433.299C53.4309 433.369 46.6958 442.067 42.3291 453.56C40.1363 459.301 38.5467 465.713 38.5259 472.018C38.5126 478.336 39.9794 484.492 43.9418 490.269C44.379 490.904 44.8447 491.533 45.3445 492.154L45.3482 492.158L163.104 639.23C164.45 640.913 164.35 643.343 162.869 644.909C161.388 646.474 158.966 646.708 157.213 645.456L126.11 623.267C125.779 623.033 125.513 622.782 125.26 622.467L128.624 619.745L131.135 616.223L136.876 620.318L38.594 497.567L38.5975 497.572C37.9603 496.779 37.3668 495.979 36.8129 495.174C31.6865 487.739 29.8004 479.555 29.8743 471.8C29.9884 460.138 34.2459 449.31 38.3658 441.3C42.5028 433.295 46.5778 428.104 46.6903 427.958L50.0931 430.63L52.3857 434.3L52.3737 434.307C52.2744 434.369 51.6919 434.74 50.7558 435.384C48.7629 436.753 45.1677 439.365 41.2088 442.865C35.2619 448.099 28.5547 455.396 25.1148 463.143C23.3812 467.016 22.4462 470.949 22.6023 474.873C22.7694 478.801 23.9703 482.794 26.8912 487.062C27.0919 487.355 27.3063 487.651 27.528 487.951L24.0541 490.53L27.4174 487.808L131.986 617.024L128.624 619.745L131.135 616.223L128.624 619.745Z" fill="#231F20"/>
<path d="M177.998 568.776C165.27 550.277 157.882 529.756 155.269 508.92L155.203 508.925L155.219 508.49C153.899 497.785 153.922 487.021 155.162 476.402L154.812 269.485L154.897 269.467C148.659 220.721 169.145 170.303 212.413 140.536C261.372 106.854 324.548 109.864 369.766 143.307L369.777 143.204L472.716 281.459L471.526 531.368L366.491 603.629C304.823 646.054 220.423 630.444 177.998 568.776Z" fill="url(#paint0_linear)"/>
<path d="M177.998 568.776L174.433 571.23C161.299 552.141 153.669 530.944 150.975 509.459L155.269 508.92L155.547 513.238L155.479 513.243C154.261 513.321 153.059 512.876 152.185 512.024C151.31 511.174 150.833 509.983 150.878 508.763L150.894 508.328L155.219 508.49L150.925 509.019C149.56 497.959 149.585 486.848 150.866 475.899L155.162 476.402L150.836 476.41L150.486 269.491C150.481 267.441 151.929 265.662 153.938 265.247L154.023 265.229L154.897 269.467L150.605 270.016C147.388 244.863 151.061 219.295 161.123 196.158C171.18 173.024 187.647 152.321 209.961 136.971C235.208 119.599 264.164 111.676 292.605 112.426C321.048 113.172 349.002 122.571 372.34 139.829L369.766 143.307L365.463 142.864L365.474 142.761C365.655 140.981 366.903 139.509 368.629 139.032C370.354 138.557 372.179 139.185 373.248 140.62L476.186 278.876C476.749 279.632 477.047 280.537 477.042 281.48L475.853 531.389C475.845 532.806 475.147 534.129 473.978 534.933L368.943 607.194C305.303 650.972 218.215 634.865 174.433 571.23L181.562 566.325C202.106 596.183 232.779 614.869 265.815 620.983C298.853 627.087 334.176 620.607 364.038 600.064L467.21 529.086L468.382 282.885L366.308 145.788L369.777 143.204L374.082 143.647L374.071 143.751C373.91 145.304 372.94 146.636 371.514 147.266C370.085 147.895 368.447 147.714 367.194 146.786C345.311 130.601 319.067 121.774 292.379 121.076C265.687 120.378 238.576 127.791 214.866 144.101C193.912 158.519 178.499 177.905 169.058 199.609C159.619 221.313 156.169 245.323 159.187 268.917C159.474 271.157 157.983 273.248 155.773 273.704L155.688 273.722L154.812 269.485L159.139 269.477L159.489 476.395C159.488 476.575 159.481 476.725 159.46 476.903C158.257 487.194 158.237 497.613 159.513 507.959C159.544 508.214 159.552 508.395 159.543 508.651L159.527 509.086L155.203 508.925L154.925 504.606L154.989 504.602C157.27 504.455 159.276 506.115 159.561 508.381C162.096 528.568 169.24 548.413 181.562 566.325L177.998 568.776Z" fill="#231F20"/>
<path d="M516.702 290.806C535.415 277.93 535.949 255.189 517.866 240.057L347.598 97.4667C329.534 82.3216 299.71 80.4787 280.978 93.3663L104.684 214.65C85.9694 227.525 85.4589 250.238 103.521 265.383L273.782 407.98C291.854 423.118 321.705 424.956 340.41 412.088L516.702 290.806Z" fill="#231F20"/>
<path d="M516.701 290.805L514.249 287.241C521.227 282.422 525.099 276.361 526.338 270.054C527.556 263.741 526.178 257.03 521.85 250.711C520.096 248.161 517.85 245.689 515.089 243.377L344.82 100.783C336.632 93.902 325.503 89.9054 314.272 89.2225C303.039 88.5209 291.813 91.1434 283.429 96.9307L107.137 218.215C100.154 223.035 96.2877 229.092 95.0515 235.397C93.8379 241.707 95.2198 248.417 99.5508 254.737C101.303 257.286 103.542 259.757 106.298 262.066L276.56 404.664C284.748 411.539 295.888 415.534 307.125 416.219C318.362 416.921 329.587 414.302 337.957 408.523L514.249 287.241L519.154 294.37L342.861 415.652C332.525 422.744 319.474 425.639 306.592 424.856C293.708 424.052 280.887 419.558 271.003 411.297L100.742 268.699C97.425 265.92 94.6435 262.873 92.4211 259.643C86.9089 251.656 84.8554 242.452 86.5583 233.745C88.2402 225.035 93.6446 216.975 102.232 211.085L278.525 89.8012C288.873 82.7026 301.925 79.8016 314.804 80.5863C327.685 81.389 340.498 85.8856 350.377 94.1499L520.645 236.742C523.965 239.521 526.751 242.57 528.978 245.807C534.492 253.794 536.539 263.001 534.832 271.707C533.145 280.421 527.74 288.481 519.154 294.37L516.701 290.805Z" fill="#231F20"/>
<path d="M405.829 332.399C460.227 294.975 461.735 228.961 409.202 184.943C356.656 140.948 269.973 135.62 215.566 173.05C161.159 210.481 159.633 276.492 212.17 320.493C264.725 364.498 351.413 369.835 405.829 332.399Z" fill="url(#paint1_linear)"/>
<path d="M405.829 332.399L403.377 328.834C425.198 313.804 437.904 294.294 441.925 273.682C445.925 253.063 441.272 231.188 427.56 211.232C422.012 203.168 414.977 195.429 406.422 188.259C380.998 166.955 347.033 154.874 312.816 152.781C278.6 150.669 244.24 158.556 218.019 176.614C196.192 191.648 183.48 211.157 179.454 231.77C175.451 252.386 180.096 274.257 193.804 294.207C199.352 302.271 206.387 310.01 214.949 317.175C240.379 338.487 274.348 350.573 308.567 352.668C342.788 354.783 377.15 346.897 403.377 328.834L408.282 335.963C380.091 355.337 343.902 363.501 308.037 361.306C272.169 359.091 236.516 346.506 209.393 323.81C200.273 316.174 192.695 307.862 186.675 299.112C171.784 277.495 166.467 253.128 170.961 230.114C175.436 207.097 189.684 185.587 213.114 169.485C241.298 150.115 277.485 141.949 313.347 144.144C349.21 146.357 384.858 158.936 411.979 181.625C421.092 189.265 428.669 197.576 434.689 206.327C449.584 227.949 454.907 252.32 450.419 275.333C445.952 298.354 431.708 319.864 408.282 335.963L405.829 332.399Z" fill="#231F20"/>
<path d="M93.4253 566.714C93.4253 566.714 121.447 604.88 130.87 582.258C140.272 559.624 93.4253 566.714 93.4253 566.714Z" fill="#918F90"/>
<path d="M84.1127 515.463C108.589 514.365 85.9119 555.951 85.9119 555.951C85.9119 555.951 59.6279 516.551 84.1127 515.463Z" fill="#918F90"/>
<path d="M199.087 370.934C197.606 368.781 195.098 367.361 192.241 367.385C187.707 367.412 184.044 371.136 184.082 375.665L185.049 498.074C185.089 502.628 188.802 506.295 193.349 506.245C197.887 506.201 201.549 502.479 201.517 497.959L200.536 375.545C200.536 373.836 199.995 372.253 199.087 370.934Z" fill="#393536"/>
<path d="M190.682 376.909L191.659 499.297C191.685 502.056 193.145 504.376 195.248 505.842C194.603 505.999 194.015 506.237 193.349 506.245C188.802 506.295 185.089 502.628 185.049 498.074L184.082 375.665C184.044 371.136 187.707 367.412 192.241 367.385C194.07 367.357 195.728 367.98 197.086 368.96C193.415 369.846 190.654 372.99 190.682 376.909Z" fill="url(#paint2_linear)"/>
<path d="M239.318 404.802C237.824 402.63 235.315 401.211 232.484 401.229C227.942 401.249 224.294 404.989 224.307 409.521L225.279 531.942C225.302 536.467 229.031 540.138 233.583 540.097C238.108 540.074 241.77 536.351 241.727 531.814L240.77 409.397C240.762 407.694 240.225 406.119 239.318 404.802Z" fill="#393536"/>
<path d="M230.919 410.744L231.9 533.157C231.925 535.918 233.384 538.237 235.481 539.693C234.852 539.852 234.255 540.099 233.583 540.097C229.031 540.138 225.302 536.467 225.279 531.942L224.307 409.521C224.294 404.989 227.942 401.249 232.484 401.229C234.303 401.209 235.943 401.844 237.326 402.821C233.659 403.691 230.896 406.835 230.919 410.744Z" fill="url(#paint3_linear)"/>
<path d="M279.152 434.154C277.651 431.973 275.124 430.567 272.302 430.58C267.757 430.615 264.09 434.328 264.132 438.882L265.116 561.279C265.126 565.826 268.854 569.497 273.395 569.438C277.952 569.421 281.581 565.693 281.549 561.174L280.588 438.747C280.572 437.034 280.047 435.454 279.152 434.154Z" fill="#393536"/>
<path d="M270.744 440.104L271.703 562.505C271.74 565.242 273.18 567.575 275.287 569.066C274.676 569.213 274.09 569.452 273.395 569.438C268.854 569.497 265.126 565.826 265.116 561.279L264.132 438.882C264.09 434.328 267.757 430.615 272.302 430.58C274.112 430.567 275.756 431.185 277.126 432.185C273.469 433.032 270.702 436.167 270.744 440.104Z" fill="url(#paint4_linear)"/>
<path d="M399.067 477.372L371.586 438.74C371.586 438.74 230.484 558.612 185.663 596.738C140.824 634.835 121.654 610.686 121.654 610.686C121.654 610.686 163.216 673.685 196.421 650.841C216.565 636.983 399.067 477.372 399.067 477.372Z" fill="#393536"/>
<path d="M399.067 477.372L395.541 479.88L368.061 441.249L371.586 438.74L374.387 442.038C374.387 442.038 365.568 449.53 351.639 461.364C309.853 496.864 222.08 571.441 188.467 600.033C184.395 603.493 180.514 606.466 176.811 609.013C167.278 615.571 158.925 619.308 151.663 621.136C146.219 622.508 141.393 622.794 137.234 622.393C130.988 621.797 126.288 619.654 123.175 617.613C120.054 615.57 118.484 613.65 118.264 613.376L121.654 610.686L125.266 608.306L125.292 608.342C125.349 608.433 125.513 608.676 125.774 609.055C126.975 610.801 130.233 615.401 134.891 620.957C141.862 629.293 152.06 639.757 162.824 645.935C168.199 649.037 173.66 651.047 178.835 651.432C181.428 651.626 183.956 651.432 186.46 650.777C188.964 650.12 191.454 649.005 193.968 647.277C195.067 646.52 196.931 645.114 199.333 643.214C208.385 636.063 225.288 621.864 245.458 604.658C275.727 578.84 313.421 546.201 343.543 520.019C358.605 506.929 371.775 495.452 381.178 487.248C385.88 483.146 389.641 479.862 392.225 477.606C394.809 475.348 396.214 474.119 396.22 474.115L399.067 477.372L395.541 479.88L399.067 477.372L401.915 480.63C401.912 480.632 356.282 520.538 308.128 562.181C284.049 583.005 259.342 604.261 239.379 621.19C229.399 629.655 220.605 637.037 213.66 642.749C210.186 645.607 207.175 648.047 204.698 650.004C202.215 651.965 200.291 653.428 198.873 654.406C194.489 657.428 189.826 659.197 185.154 659.85C181.066 660.426 176.993 660.165 173.052 659.299C166.148 657.778 159.629 654.457 153.61 650.348C144.589 644.176 136.652 636.18 130.537 629.177C124.426 622.174 120.16 616.16 118.645 613.96C118.261 613.402 118.054 613.087 118.039 613.065C116.768 611.136 117.244 608.537 119.116 607.182C120.987 605.826 123.606 606.185 125.042 607.996L123.709 609.053L125.011 607.959L125.042 607.996L123.709 609.053L125.011 607.959C125.048 608.001 125.951 609.061 127.734 610.254C130.43 612.04 135.003 614.173 142.105 613.876C149.206 613.563 159.024 610.741 171.907 601.883C175.344 599.518 178.996 596.724 182.861 593.44C227.683 555.314 368.784 435.444 368.784 435.444C369.703 434.663 370.926 434.298 372.121 434.446C373.317 434.596 374.411 435.252 375.11 436.233L402.592 474.864C403.878 476.673 403.586 479.167 401.915 480.63L399.067 477.372Z" fill="#231F20"/>
<path d="M400.845 496.021C419.578 483.132 424.314 457.513 411.427 438.78C398.553 420.066 372.934 415.33 354.199 428.219C335.477 441.099 330.741 466.718 343.615 485.432C356.503 504.165 382.122 508.901 400.845 496.021Z" fill="#393536"/>
<path d="M400.845 496.021L398.392 492.456C406.785 486.68 412.018 478.087 413.739 468.805C415.451 459.523 413.635 449.629 407.863 441.233C402.092 432.851 393.503 427.622 384.224 425.904C374.943 424.194 365.047 426.009 356.651 431.783C348.264 437.555 343.034 446.146 341.312 455.425C339.601 464.706 341.414 474.596 347.179 482.981C352.956 491.373 361.548 496.606 370.827 498.327C380.11 500.038 390.003 498.226 398.392 492.456L403.297 499.586C392.963 506.697 380.686 508.956 369.254 506.836C357.824 504.727 347.161 498.225 340.051 487.884C332.94 477.555 330.684 465.278 332.803 453.852C334.913 442.422 341.411 431.763 351.747 424.654C362.086 417.539 374.366 415.278 385.795 417.393C397.227 419.5 407.886 425.996 414.991 436.328C422.106 446.666 424.368 458.947 422.248 470.38C420.14 481.813 413.638 492.473 403.297 499.586L400.845 496.021Z" fill="#231F20"/>
</g>
</g>
<defs>
<filter id="filter0_d" x="0" y="0" width="551" height="818" filterUnits="userSpaceOnUse" color-interpolation-filters="sRGB">
<feFlood flood-opacity="0" result="BackgroundImageFix"/>
<feColorMatrix in="SourceAlpha" type="matrix" values="0 0 0 0 0 0 0 0 0 0 0 0 0 0 0 0 0 0 127 0"/>
<feOffset dy="4"/>
<feGaussianBlur stdDeviation="2"/>
<feColorMatrix type="matrix" values="0 0 0 0 0 0 0 0 0 0 0 0 0 0 0 0 0 0 0.25 0"/>
<feBlend mode="normal" in2="BackgroundImageFix" result="effect1_dropShadow"/>
<feBlend mode="normal" in="SourceGraphic" in2="effect1_dropShadow" result="shape"/>
</filter>
<linearGradient id="paint0_linear" x1="187.613" y1="377.856" x2="428.973" y2="364.219" gradientUnits="userSpaceOnUse">
<stop stop-color="#231F20"/>
<stop offset="0.427271" stop-color="#393536"/>
<stop offset="0.48" stop-color="#393536"/>
<stop offset="0.682233" stop-color="#393536"/>
<stop offset="1" stop-color="#231F20"/>
</linearGradient>
<linearGradient id="paint1_linear" x1="183.149" y1="242.248" x2="429.958" y2="256.685" gradientUnits="userSpaceOnUse">
<stop stop-color="#FBF1C8"/>
<stop offset="0.011236" stop-color="#FBF1C8"/>
<stop offset="0.174157" stop-color="#F8DA91"/>
<stop offset="0.297753" stop-color="#F9E4A1"/>
<stop offset="0.539326" stop-color="#EACF93"/>
<stop offset="0.657303" stop-color="#F1D292"/>
<stop offset="0.780899" stop-color="#FBEFCB"/>
<stop offset="0.960674" stop-color="#F8E2AE"/>
<stop offset="1" stop-color="#F8E2AE"/>
</linearGradient>
<linearGradient id="paint2_linear" x1="190.565" y1="367.601" x2="191.121" y2="503.317" gradientUnits="userSpaceOnUse">
<stop stop-color="#231F20"/>
<stop offset="0.427271" stop-color="#393536"/>
<stop offset="0.48" stop-color="#393536"/>
<stop offset="0.682233" stop-color="#393536"/>
<stop offset="1" stop-color="#231F20"/>
</linearGradient>
<linearGradient id="paint3_linear" x1="230.796" y1="401.445" x2="231.353" y2="537.168" gradientUnits="userSpaceOnUse">
<stop stop-color="#231F20"/>
<stop offset="0.427271" stop-color="#393536"/>
<stop offset="0.48" stop-color="#393536"/>
<stop offset="0.682233" stop-color="#393536"/>
<stop offset="1" stop-color="#231F20"/>
</linearGradient>
<linearGradient id="paint4_linear" x1="270.609" y1="430.796" x2="271.166" y2="566.509" gradientUnits="userSpaceOnUse">
<stop stop-color="#231F20"/>
<stop offset="0.427271" stop-color="#393536"/>
<stop offset="0.48" stop-color="#393536"/>
<stop offset="0.682233" stop-color="#393536"/>
<stop offset="1" stop-color="#231F20"/>
</linearGradient>
<clipPath id="clip0">
<rect width="543" height="810" fill="white" transform="matrix(-1 0 0 1 547 0)"/>
</clipPath>
<clipPath id="clip1">
<rect width="486" height="507" fill="white" transform="matrix(-0.574524 -0.818488 -0.818488 0.574524 650 413.785)"/>
</clipPath>
</defs>
</svg>
